<svg width="56" height="56" viewBox="0 0 56 56" fill="none" xmlns="http://www.w3.org/2000/svg">
<path d="M26.9019 11.9463C28.1988 6.84587 24.0624 -1.26926 15.0885 0.167976C13.1955 8.5986 21.7488 13.5939 26.9019 11.9463Z" fill="#525937"/>
<path d="M26.9019 11.9463C28.1988 6.84587 24.0624 -1.26926 15.0885 0.167976C13.1955 8.5986 21.7488 13.5939 26.9019 11.9463Z" fill="#525937"/>
<path d="M29.0981 11.9463C27.8012 6.84587 31.9376 -1.26926 40.9115 0.167976C42.8045 8.5986 34.2512 13.5939 29.0981 11.9463Z" fill="#525937"/>
<path d="M29.0981 44.0536C27.8012 49.1541 31.9376 57.2692 40.9115 55.832C42.8045 47.4014 34.2512 42.4061 29.0981 44.0536Z" fill="#525937"/>
<path d="M26.9019 44.0536C28.1988 49.1541 24.0624 57.2692 15.0885 55.832C13.1955 47.4014 21.7488 42.4061 26.9019 44.0536Z" fill="#525937"/>
<path d="M44.0537 26.9018C49.1541 28.1988 57.2693 24.0624 55.832 15.0884C47.4014 13.1954 42.4061 21.7488 44.0537 26.9018Z" fill="#525937"/>
<path d="M44.0537 29.0981C49.1541 27.8011 57.2693 31.9375 55.832 40.9115C47.4014 42.8045 42.4061 34.2511 44.0537 29.0981Z" fill="#525937"/>
<path d="M11.9462 29.0981C6.84575 27.8011 -1.26939 31.9375 0.167854 40.9115C8.59847 42.8045 13.5938 34.2511 11.9462 29.0981Z" fill="#525937"/>
<path d="M11.9463 26.9018C6.84587 28.1988 -1.26926 24.0624 0.167976 15.0884C8.5986 13.1954 13.5939 21.7488 11.9463 26.9018Z" fill="#525937"/>
<path d="M33.8102 22.0538C28.7097 20.7568 20.5946 24.8933 22.0318 33.8672C30.4624 35.7602 35.4577 27.2069 33.8102 22.0538Z" fill="#525937"/>
<path d="M33.8002 33.9137C28.6998 35.2107 20.5846 31.0743 22.0219 22.1003C30.4525 20.2073 35.4478 28.7607 33.8002 33.9137Z" fill="#525937"/>
</svg>
